<?xml version="1.0" standalone="no"?>
<!DOCTYPE svg PUBLIC "-//W3C//DTD SVG 20010904//EN"
 "http://www.w3.org/TR/2001/REC-SVG-20010904/DTD/svg10.dtd">
<svg version="1.0" xmlns="http://www.w3.org/2000/svg"
 width="1500.000000pt" height="1500.000000pt" viewBox="0 0 1500.000000 1500.000000"
 preserveAspectRatio="xMidYMid meet">
<metadata>
Created by potrace 1.10, written by Peter Selinger 2001-2011
</metadata>
<g transform="translate(0.000000,1500.000000) scale(0.100000,-0.100000)"
fill="#000000" stroke="none">
<path d="M2602 11518 c-16 -16 -17 -3262 -2 -3438 6 -63 20 -160 31 -215 12
-55 24 -116 28 -136 4 -19 11 -42 16 -49 5 -7 12 -30 16 -49 23 -113 144 -379
252 -554 117 -189 334 -433 495 -555 68 -52 245 -172 313 -211 95 -56 354
-171 385 -171 7 0 28 -6 46 -14 18 -8 61 -21 96 -30 34 -9 88 -23 120 -31 31
-8 80 -16 107 -19 28 -2 82 -10 120 -17 82 -13 440 -7 550 11 212 33 478 115
674 207 110 51 230 122 241 143 6 12 10 545 10 1489 0 809 1 1472 3 1473 1 1
168 5 372 8 318 4 370 7 373 20 2 13 -18 49 -101 185 -7 11 -39 55 -72 100
-196 263 -407 453 -680 612 -284 166 -468 233 -778 284 -110 19 -174 23 -382
23 l-250 1 -3 -924 c-1 -593 1 -928 8 -935 5 -5 59 -8 122 -7 215 4 328 -30
423 -130 31 -32 68 -84 83 -116 23 -51 27 -71 27 -158 0 -93 -2 -105 -33 -167
-77 -157 -256 -252 -414 -219 -133 27 -233 106 -291 229 l-32 67 -5 1640 c-3
902 -9 1646 -13 1653 -12 17 -1837 18 -1855 0z"/>
<path d="M7603 9523 c-17 -6 -19 -2513 -2 -2673 35 -333 145 -599 334 -808
130 -143 361 -283 565 -341 225 -65 297 -71 872 -71 285 0 523 2 528 5 6 4 10
246 10 640 0 568 -2 633 -16 639 -9 3 -212 6 -453 6 l-438 0 -21 23 c-22 23
-22 28 -20 268 l3 244 470 5 470 5 3 634 c2 501 0 636 -10 643 -7 4 -221 8
-475 8 l-463 0 0 378 c0 281 -3 381 -12 390 -9 9 -171 12 -673 11 -363 0 -666
-3 -672 -6z"/>
<path d="M6316 9134 c-3 -9 -6 -706 -6 -1549 0 -1381 2 -1535 16 -1549 14 -14
87 -16 654 -16 351 0 645 3 654 6 24 9 20 20 -34 111 -27 46 -50 85 -50 88 0
3 -13 33 -29 67 -62 131 -104 294 -126 483 -12 96 -15 338 -16 1230 0 685 -4
1116 -10 1127 -9 17 -40 18 -528 18 -464 0 -520 -2 -525 -16z"/>
<path d="M10690 9034 c-109 -22 -183 -41 -290 -76 -113 -37 -254 -100 -266
-119 -5 -8 -11 -367 -14 -799 l-5 -785 -375 -5 c-206 -3 -377 -7 -379 -8 -8
-4 8 -83 19 -97 11 -13 67 -15 360 -15 192 0 355 -3 364 -6 14 -5 16 -61 16
-521 l0 -514 24 -24 c45 -45 265 -136 431 -179 180 -46 222 -47 1110 -44 l840
3 3 640 c1 352 0 650 -3 663 l-5 22 -777 0 c-538 0 -797 4 -842 11 -148 26
-232 125 -233 274 0 176 118 295 292 294 178 -1 310 -111 310 -260 0 -63 -23
-122 -71 -180 -21 -26 -35 -49 -32 -53 4 -3 249 -6 546 -6 l539 0 64 65 c71
72 130 183 161 300 23 89 26 440 4 520 -47 175 -95 279 -179 390 -207 275
-457 413 -907 502 -116 23 -601 27 -705 7z"/>
<path d="M1911 6555 c-134 -90 -247 -169 -252 -177 -10 -18 152 -259 202 -299
107 -85 271 -16 273 115 l1 41 47 -3 c58 -4 108 18 148 67 35 42 40 99 13 158
-28 63 -163 263 -176 262 -7 0 -122 -74 -256 -164z m289 -57 c49 -78 52 -118
11 -147 -37 -26 -61 -26 -94 -1 -31 24 -87 105 -87 125 0 16 89 83 112 84 11
1 33 -23 58 -61z m-255 -86 c6 -4 30 -36 53 -71 35 -53 42 -72 40 -104 -4 -56
-42 -84 -95 -71 -32 7 -46 21 -90 84 -29 41 -52 78 -53 81 0 6 86 71 110 81
20 9 23 9 35 0z"/>
<path d="M2645 6021 c-16 -9 -104 -56 -195 -103 -298 -154 -330 -172 -330
-183 0 -6 16 -26 35 -45 l35 -34 55 27 c31 15 61 27 68 27 7 0 50 -35 96 -78
l84 -77 -22 -49 c-11 -27 -21 -59 -21 -71 0 -25 55 -78 74 -72 6 2 28 42 48
88 80 183 113 258 129 290 17 35 89 208 89 213 0 3 -16 24 -36 46 -40 44 -62
48 -109 21z m-9 -154 c-3 -12 -24 -62 -46 -110 -28 -60 -46 -87 -58 -87 -22 1
-115 89 -109 104 3 6 24 22 48 34 24 13 64 36 89 52 57 36 84 39 76 7z"/>
<path d="M3098 5683 c-14 -17 -148 -240 -252 -419 -25 -45 -44 -88 -41 -95 5
-14 273 -178 305 -186 12 -3 24 6 38 30 24 42 18 55 -44 89 -127 71 -144 83
-144 104 0 12 54 113 120 224 66 111 120 208 120 216 0 14 -56 54 -76 54 -6 0
-18 -8 -26 -17z"/>
<path d="M6080 5521 c-8 -5 -31 -16 -50 -24 -19 -9 -55 -25 -80 -36 -25 -11
-76 -33 -114 -49 -88 -35 -95 -47 -69 -103 11 -24 42 -95 67 -158 26 -63 57
-137 70 -165 13 -28 33 -76 46 -106 40 -99 27 -99 231 -10 100 43 183 81 186
84 3 3 -1 23 -9 43 -12 33 -19 38 -44 37 -26 -1 -106 -34 -202 -82 -24 -13
-37 -14 -50 -6 -20 13 -62 112 -55 130 2 7 44 29 91 49 129 54 132 56 132 82
0 35 -18 63 -39 63 -10 0 -64 -20 -121 -45 -97 -42 -104 -44 -122 -29 -10 10
-18 24 -18 33 0 9 -7 25 -15 35 -8 11 -15 30 -15 42 0 19 19 30 126 75 70 30
129 60 131 67 3 7 -2 28 -11 47 -17 35 -36 42 -66 26z"/>
<path d="M3734 5333 c-22 -26 -85 -106 -139 -178 -55 -71 -125 -163 -157 -203
-32 -40 -58 -80 -58 -88 0 -16 57 -44 88 -44 11 0 30 17 46 40 40 61 48 62
159 25 54 -17 103 -37 109 -43 6 -6 14 -39 17 -73 6 -60 7 -62 44 -76 68 -28
66 -38 61 299 -3 167 -7 313 -10 326 -5 23 -38 43 -95 57 -21 5 -31 -1 -65
-42z m64 -244 l-3 -114 -40 1 c-51 2 -121 29 -117 46 9 38 141 203 153 191 5
-5 8 -61 7 -124z"/>
<path d="M5290 5269 c-104 -12 -183 -67 -225 -155 -84 -178 3 -421 172 -478
151 -52 326 21 372 153 10 29 16 62 13 73 -4 16 -10 18 -51 12 -59 -8 -59 -9
-81 -59 -25 -58 -71 -85 -145 -85 -101 0 -148 47 -180 179 -15 60 -16 78 -5
115 19 68 46 105 93 126 74 34 132 25 189 -28 25 -23 32 -25 75 -16 60 11 66
34 22 87 -55 67 -131 90 -249 76z"/>
<path d="M4277 5227 c-3 -8 -10 -83 -16 -168 -7 -85 -16 -201 -21 -259 -18
-189 -18 -190 60 -190 36 0 39 2 44 38 12 70 26 227 26 287 1 122 22 107 106
-75 32 -69 68 -145 81 -169 13 -24 23 -49 23 -56 0 -6 11 -22 24 -34 19 -18
33 -22 77 -19 l54 3 7 50 c4 28 12 124 18 215 6 91 15 203 21 248 12 103 6
114 -60 110 l-45 -3 -18 -185 c-9 -102 -17 -193 -17 -202 -2 -45 -31 -8 -86
109 -33 69 -80 167 -105 217 l-45 91 -61 3 c-45 2 -63 -1 -67 -11z"/>
</g>
</svg>
